<svg width="271" height="42" viewBox="0 0 271 42" fill="none" xmlns="http://www.w3.org/2000/svg">
<g opacity="0.5">
<path fill-rule="evenodd" clip-rule="evenodd" d="M121.085 12.4285L126.736 8.25839H107.818V33.2378H126.736V29.0679H113.223V22.6902H124.771V18.5201H113.223V12.4285H121.085Z" fill="white"/>
<path fill-rule="evenodd" clip-rule="evenodd" d="M93.5266 17.9886H86.9749V12.4285H97.4579L103.109 8.25839H81.5697V33.2378H92.8307C99.1368 33.2378 102.781 30.3763 102.781 25.3884C102.781 20.6051 99.5053 17.9886 93.5266 17.9886ZM92.6259 29.0679H86.9749V22.1585H92.6259C96.0655 22.1585 97.6626 23.3033 97.6626 25.6336C97.6626 27.9641 95.9427 29.0679 92.6259 29.0679Z" fill="white"/>
<path fill-rule="evenodd" clip-rule="evenodd" d="M142.051 8.25839H131.773V33.2378H137.178V26.1651H142.092C148.644 26.1651 152.739 22.7309 152.739 17.2117C152.739 11.6925 148.644 8.25839 142.051 8.25839ZM141.928 21.9952H137.137V12.4285H141.928C145.409 12.4285 147.292 14.1456 147.292 17.2117C147.292 20.2781 145.409 21.9952 141.928 21.9952Z" fill="white"/>
<path fill-rule="evenodd" clip-rule="evenodd" d="M72.3153 27.8414C70.8821 28.6181 69.2851 29.027 67.6472 29.027C62.7743 29.027 59.2527 25.552 59.2527 20.7686C59.2527 15.9854 62.7743 12.5103 67.6472 12.5103C69.4079 12.4694 71.1279 13.0418 72.5609 14.0637L76.4511 11.202L76.2054 10.9566C73.9532 8.95341 70.9231 7.93141 67.4834 7.93141C63.757 7.93141 60.3583 9.19878 57.9014 11.4883C55.4445 13.8594 54.0523 17.171 54.134 20.6051C54.0932 24.0802 55.4445 27.4325 57.9014 29.8855C60.4811 32.2976 63.9208 33.6469 67.4424 33.565C71.3325 33.565 74.7313 32.2159 77.0245 29.7629L73.5438 27.1873L72.3153 27.8414Z" fill="white"/>
<path fill-rule="evenodd" clip-rule="evenodd" d="M217.724 8.29927V33.2788H223.129V23.058H234.636V33.2788H240.041V8.29927H234.636V18.561H223.129V8.29927H217.724ZM208.429 33.2788H214.121L203.556 8.29927H198.069L187.299 33.2788H192.745L194.916 28.2503H206.381L208.429 33.2788ZM196.554 24.0802L200.73 14.0637L204.662 24.0802H196.554ZM252.162 23.1807H255.52L263.791 33.2378H270.753L259.696 20.3188L269.36 8.25839H263.177L255.151 18.9698H252.162V8.25839H246.757V33.2378H252.162V23.1807ZM169.446 18.0295V12.4694H183.573V8.29927H164.04V33.2788H175.301C181.607 33.2788 185.252 30.417 185.252 25.4293C185.252 20.6459 181.976 18.0295 175.997 18.0295H169.446ZM169.446 22.1996H175.097C178.536 22.1996 180.133 23.3443 180.133 25.6747C180.133 28.0049 178.454 29.1496 175.097 29.1496H169.446V22.1996Z" fill="white"/>
<path fill-rule="evenodd" clip-rule="evenodd" d="M37.2223 8.09481C38.205 9.36231 39.0241 10.7523 39.7203 12.224L20.802 26.1652L12.8578 21.1775V15.2085L20.7608 20.1555L37.2223 8.09481ZM6.85588 5.41586L6.83839 5.39658C2.65161 9.17093 0.0390969 14.5969 0.000957015 20.6349L0.000683344 20.6505L0 20.7279L0.000136836 20.7493L0 20.7686C0.0103894 26.1031 2.04834 30.974 5.3836 34.6514L5.36433 34.6689C9.14455 38.849 14.5794 41.4574 20.6268 41.4954L20.6424 41.4956L20.7199 41.4963L20.7415 41.4962L20.7608 41.4963C26.115 41.4859 31.0024 39.4431 34.6886 36.1011L34.7245 36.1408C38.9012 32.3795 41.5629 26.8602 41.5629 20.7686C41.5629 19.5012 41.44 18.2749 41.2354 17.0482L36.7719 20.3599C36.7719 20.4825 36.7719 20.646 36.7719 20.7686C36.7719 25.1883 34.9625 29.1745 32.0581 32.0479L32.0218 32.0115C29.1554 34.955 25.1834 36.713 20.7608 36.713C20.6192 36.713 20.4781 36.7108 20.3374 36.7072C20.2089 36.7019 20.0803 36.6918 19.942 36.6721L19.941 36.6919C15.8527 36.4844 12.1813 34.7353 9.48398 32.0277L9.50011 32.0115C6.59273 29.1497 4.79086 25.1841 4.79086 20.7686C4.79086 20.6263 4.79291 20.4843 4.79674 20.3426C4.80207 20.2155 4.81232 20.088 4.83201 19.951L4.81219 19.95C5.02134 15.8986 6.77345 12.2056 9.48426 9.50995L9.50011 9.5258C12.3665 6.62307 16.3795 4.82421 20.7608 4.82421C21.0476 4.82421 21.2933 4.82421 21.5799 4.86509L21.5825 4.81328C24.6257 4.997 27.4393 5.99069 29.7696 7.60432L33.8237 4.61984C30.2611 1.75798 25.7157 0 20.7608 0V0.0411441C15.4175 0.0516702 10.5392 2.08634 6.85588 5.41586Z" fill="white"/>
</g>
</svg>
