<svg width="185" height="51" viewBox="0 0 185 51" fill="none" xmlns="http://www.w3.org/2000/svg">
<g opacity="0.5">
<path d="M94.0351 10.7712V41.056H87.337V25.615C87.337 22.4586 87.3797 19.4302 87.465 16.4015C86.697 19.3022 85.9721 21.9893 84.8627 25.615L80.2122 41.056H74.2395L69.5042 25.615C68.4374 21.9893 67.4988 19.2594 66.7307 16.4443C66.816 19.4728 66.8586 22.4586 66.8586 25.5722V41.056H60.2458V10.7712H71.0398L74.6662 22.6292C75.6475 25.8709 76.5432 29.0273 77.2685 31.9705C77.994 28.9846 78.8899 25.7855 79.8283 22.6292L83.4119 10.7712H94.0351Z" fill="white"/>
<path d="M125.991 10.7712V41.056H119.293V32.0559C119.293 27.2785 119.378 22.8424 119.549 19.0037C117.97 22.1174 115.837 25.8709 113.875 29.2834L107.134 41.056H99.8384V10.7712H106.536V20.4964C106.536 25.1457 106.451 28.9846 106.28 32.3542C107.731 29.3686 109.438 26.3401 111.101 23.4824L118.482 10.7712H125.991Z" fill="white"/>
<path d="M156.623 25.7856C156.623 34.9567 150.821 41.824 141.264 41.824C136.572 41.824 132.945 40.2457 129.276 36.7907L133.244 32.0987C136.486 34.7004 138.321 35.7245 141.435 35.7245C145.829 35.7245 148.858 32.9517 149.626 28.3026H137.425V22.5014H149.413C148.432 18.4919 145.573 16.1031 141.392 16.1031C138.705 16.1031 136.827 16.7856 133.756 19.4303L129.703 14.6529C133.201 11.5391 136.273 10.0037 141.264 10.0037C151.034 10.0037 156.623 16.9562 156.623 25.7856Z" fill="white"/>
<path d="M184.056 16.7002H175.011V41.056H168.1V16.7002H159.141V10.7712H184.056V16.7002Z" fill="white"/>
<path d="M47.917 36.3726C49.3825 33.1867 50.2 29.641 50.2 25.9034C50.2 12.2369 39.2733 1.1225 25.6763 0.816406H24.5245C10.9313 1.12237 0.00570646 12.2313 0.000244141 25.8931V25.9137C0.00583652 39.7692 11.2412 50.9999 25.1004 50.9999C34.5006 50.9999 42.6919 45.8326 46.9926 38.1842H44.9209V32.9171L40.9578 38.349V32.9171L36.9881 38.3518V30.2373H35.8753C36.0304 29.6459 36.1527 29.0413 36.2452 28.4275H38.6468V33.6182L42.6032 28.1972V33.6182L46.5759 28.1754V36.3726H47.917ZM36.2577 28.3456H33.8956C34.0285 27.5513 34.0999 26.7362 34.0999 25.9034C34.0999 17.7336 27.4509 11.0868 19.2787 11.0868C16.4918 11.0868 13.7762 11.8661 11.4247 13.3388L12.625 15.2527C14.6152 14.0062 16.9185 13.3475 19.2787 13.3475C26.2052 13.3475 31.838 18.9808 31.838 25.9034C31.838 26.7392 31.7549 27.5549 31.5979 28.3456H27.2966V21.0287L23.3162 26.4849L23.3141 21.0497L19.3566 26.4715V17.0854L13.9245 25.7009V17.0931L4.83245 31.4047C5.09243 32.0816 5.39494 32.7357 5.74465 33.3658L12.1124 23.4019V31.5472L17.5478 22.9261V31.5378L21.5166 26.1026V31.5346L25.4807 26.1043V30.3175H31.0355C29.2455 35.0705 24.6514 38.4619 19.2787 38.4619C16.9216 38.4619 14.6257 37.804 12.6355 36.5626L11.4389 38.4789C13.7866 39.9461 16.4987 40.7201 19.2787 40.7201C25.9141 40.7201 31.5438 36.34 33.4273 30.3175H35.855C33.9023 37.6404 27.2138 43.0514 19.2825 43.0514C9.82553 43.0514 2.13224 35.3575 2.13224 25.9034C2.13224 16.4499 9.82553 8.75601 19.2825 8.75601C28.7397 8.75601 36.432 16.4499 36.432 25.9034C36.432 26.7344 36.3724 27.548 36.2577 28.3456Z" fill="white"/>
</g>
</svg>
